<svg xmlns="http://www.w3.org/2000/svg" viewBox="0 0 640 420" role="img" aria-labelledby="title desc">
  <title id="title">Dragon ink study</title><desc id="desc">A restrained original monochrome ink placeholder illustration of a young dragon.</desc>
  <rect width="640" height="420" fill="#f7f4ec"/><path d="M60 350h520" stroke="#7a746b" stroke-width="3"/><path d="M124 302c37-34 46-98 95-132 31-22 69-20 100-8 18-30 54-54 96-53-8 19-7 36 5 54 55 11 80 55 73 101-6 41-38 62-83 63l-23 24-14-20c-40 16-94 16-132-3l-14 24-19-25c-32 17-63 15-84-2Z" fill="#d9d2c5" stroke="#302e2b" stroke-width="7"/><path d="M191 174 121 89l111 48M420 151l87-75-36 110" fill="#d9d2c5" stroke="#302e2b" stroke-width="7"/><path d="m412 196 40 16-36 29-35-15z" fill="#8e4f38" stroke="#302e2b" stroke-width="5"/><circle cx="385" cy="177" r="7" fill="#302e2b"/><path d="M265 138c12 44 46 75 91 84M234 213c-31 37-51 69-57 102M395 266c30 29 54 56 70 86M287 275l-11 75" fill="none" stroke="#302e2b" stroke-width="8" stroke-linecap="round"/><path d="M500 265c33 9 55 23 72 45" fill="none" stroke="#8e4f38" stroke-width="6" stroke-linecap="round"/></svg>
